<?xml version="1.0" encoding="UTF-8"?>
<!DOCTYPE svg PUBLIC "-//W3C//DTD SVG 1.1//EN" "http://www.w3.org/Graphics/SVG/1.1/DTD/svg11.dtd">
<!-- Creator: CorelDRAW -->
<svg xmlns="http://www.w3.org/2000/svg" xml:space="preserve" width="346.925mm" height="260.091mm" version="1.1" style="shape-rendering:geometricPrecision; text-rendering:geometricPrecision; image-rendering:optimizeQuality; fill-rule:evenodd; clip-rule:evenodd"
viewBox="0 0 2727.36 2044.71"
 xmlns:xlink="http://www.w3.org/1999/xlink"
 xmlns:xodm="http://www.corel.com/coreldraw/odm/2003">
 <defs>
  <style type="text/css">
   <![CDATA[
    .fil6 {fill:#606163}
    .fil3 {fill:#00684D}
    .fil5 {fill:#0F7045}
    .fil4 {fill:#44C340}
    .fil1 {fill:black;fill-rule:nonzero}
    .fil2 {fill:#00684D;fill-rule:nonzero}
    .fil0 {fill:#999999;fill-rule:nonzero}
   ]]>
  </style>
    <mask id="id0">
  <linearGradient id="id1" gradientUnits="userSpaceOnUse" x1="1778.67" y1="-1142.59" x2="1196.56" y2="641.53">
   <stop offset="0" style="stop-opacity:1; stop-color:white"/>
   <stop offset="0.411765" style="stop-opacity:0.501961; stop-color:white"/>
   <stop offset="1" style="stop-opacity:0; stop-color:white"/>
  </linearGradient>
     <rect style="fill:url(#id1)" x="651.53" y="-0.79" width="1357.46" height="1389.14"/>
    </mask>
 </defs>
 <g id="Layer_x0020_1">
  <metadata id="CorelCorpID_0Corel-Layer"/>
  <g id="_105553718940672">
   <path class="fil0" d="M785.44 1915.22l45.89 126.3 -13.94 0 -14.59 -40.21 -53.68 0 -14.58 40.21 -13.85 0 46.26 -126.3 18.48 0zm-9.43 12.48l-23.18 63.48 46.26 0 -23.08 -63.48zm152.57 113.82l-13.41 0 0 -16.47c-2.35,3.06 -4.79,5.66 -7.36,7.79 -2.57,2.1 -5.22,3.8 -7.94,5.1 -2.72,1.3 -5.47,2.23 -8.28,2.78 -2.81,0.52 -5.65,0.8 -8.56,0.8 -4.21,0 -8,-0.65 -11.34,-1.92 -3.37,-1.27 -6.21,-3.06 -8.56,-5.41 -2.35,-2.35 -4.14,-5.22 -5.38,-8.56 -1.26,-3.37 -1.88,-7.11 -1.88,-11.28l0 -64.99 13.41 0 0 63.26c0,3.15 0.37,5.81 1.14,7.97 0.74,2.19 1.82,3.96 3.25,5.32 1.42,1.36 3.15,2.32 5.22,2.94 2.04,0.59 4.36,0.89 6.96,0.89 4.05,0 7.85,-0.8 11.4,-2.38 3.59,-1.61 6.68,-3.68 9.34,-6.18 2.66,-2.5 4.76,-5.28 6.3,-8.37 1.51,-3.06 2.29,-6.09 2.29,-9.06l0 -54.39 13.41 0 0 92.15zm44.9 -117.71l0 25.56 16.29 0 0 11.4 -16.29 0 0 60.39c0,1.98 0.25,3.65 0.77,5 0.5,1.36 1.21,2.47 2.07,3.28 0.86,0.8 1.92,1.39 3.12,1.73 1.21,0.31 2.5,0.49 3.89,0.49 1.7,0 3.43,-0.19 5.25,-0.49 1.82,-0.34 3.37,-0.65 4.7,-0.96l0 10.94c-1.54,0.49 -3.58,0.99 -6.09,1.45 -2.5,0.5 -5.1,0.74 -7.76,0.74 -2.29,0 -4.61,-0.34 -6.92,-0.96 -2.32,-0.65 -4.42,-1.64 -6.24,-3.03 -1.85,-1.39 -3.34,-3.18 -4.48,-5.41 -1.14,-2.19 -1.73,-4.88 -1.73,-8.1l0 -65.09 -14.12 0 0 -11.4 14.12 0 0 -25.56 13.41 0zm32.14 71.91c0,-6.52 0.9,-12.7 2.69,-18.54 1.76,-5.81 4.39,-10.91 7.88,-15.3 3.46,-4.36 7.76,-7.85 12.85,-10.45 5.1,-2.6 10.94,-3.89 17.49,-3.89 6.64,0 12.55,1.3 17.68,3.89 5.13,2.6 9.46,6.09 12.98,10.45 3.52,4.39 6.21,9.49 8.06,15.3 1.82,5.84 2.75,12.02 2.75,18.54 0,6.46 -0.93,12.55 -2.75,18.33 -1.85,5.75 -4.54,10.82 -8.06,15.18 -3.52,4.33 -7.85,7.79 -12.98,10.32 -5.13,2.53 -11.03,3.8 -17.68,3.8 -6.55,0 -12.39,-1.27 -17.49,-3.8 -5.1,-2.53 -9.39,-5.99 -12.85,-10.32 -3.49,-4.36 -6.12,-9.43 -7.88,-15.18 -1.79,-5.78 -2.69,-11.87 -2.69,-18.33zm13.41 0c0,4.82 0.62,9.4 1.88,13.69 1.27,4.33 3.09,8.13 5.44,11.44 2.35,3.28 5.25,5.87 8.65,7.82 3.4,1.92 7.26,2.9 11.53,2.9 4.29,0 8.19,-0.99 11.65,-2.9 3.46,-1.95 6.43,-4.54 8.87,-7.82 2.44,-3.31 4.33,-7.11 5.63,-11.44 1.3,-4.3 1.95,-8.87 1.95,-13.69 0,-4.85 -0.65,-9.46 -1.95,-13.82 -1.3,-4.39 -3.18,-8.22 -5.63,-11.56 -2.44,-3.31 -5.41,-5.96 -8.87,-7.91 -3.46,-1.98 -7.36,-2.94 -11.65,-2.94 -4.26,0 -8.13,0.96 -11.53,2.94 -3.4,1.95 -6.3,4.6 -8.65,7.91 -2.35,3.34 -4.17,7.17 -5.44,11.56 -1.27,4.36 -1.88,8.97 -1.88,13.82zm89.9 -46.35l13.41 0 0 14.21c1.89,-2.84 3.96,-5.28 6.3,-7.29 2.32,-2.04 4.73,-3.68 7.23,-4.97 2.5,-1.3 5.04,-2.26 7.57,-2.88 2.53,-0.59 4.95,-0.89 7.23,-0.89 4.57,0 8.9,1.26 12.95,3.77 4.05,2.5 7.76,6.83 11.13,12.98 1.76,-2.96 3.8,-5.5 6.12,-7.6 2.32,-2.1 4.79,-3.86 7.39,-5.22 2.59,-1.36 5.25,-2.35 7.97,-2.97 2.72,-0.65 5.37,-0.96 7.94,-0.96 4.17,0 8,0.68 11.47,2.07 3.46,1.39 6.49,3.31 9.02,5.75 2.53,2.47 4.51,5.38 5.9,8.75 1.42,3.37 2.14,7.05 2.14,10.97l0 66.44 -13.38 0 0 -62.64c0,-3.8 -0.52,-6.96 -1.61,-9.43 -1.05,-2.47 -2.41,-4.45 -4.11,-5.93 -1.7,-1.48 -3.61,-2.5 -5.75,-3.09 -2.13,-0.56 -4.26,-0.84 -6.36,-0.84 -2.78,0 -5.59,0.62 -8.37,1.86 -2.81,1.24 -5.35,2.94 -7.6,5.16 -2.29,2.19 -4.11,4.79 -5.53,7.79 -1.42,2.97 -2.13,6.21 -2.13,9.73l0 57.39 -13.41 0 0 -62.64c0,-3.8 -0.52,-6.96 -1.61,-9.46 -1.11,-2.53 -2.47,-4.51 -4.14,-5.93 -1.64,-1.45 -3.46,-2.47 -5.47,-3.09 -1.98,-0.62 -3.9,-0.9 -5.69,-0.9 -3.59,0 -6.89,0.8 -9.92,2.44 -3.06,1.64 -5.72,3.71 -7.97,6.25 -2.26,2.53 -4.05,5.31 -5.35,8.31 -1.3,3.03 -1.95,5.9 -1.95,8.62l0 56.4 -13.41 0 0 -92.15zm225.47 92.86c-0.87,0.31 -1.95,0.59 -3.31,0.77 -1.36,0.22 -2.5,0.34 -3.4,0.34 -3.74,0 -6.89,-1.45 -9.45,-4.33 -2.57,-2.85 -4.02,-7.23 -4.33,-13.17 -2.88,3.74 -5.75,6.77 -8.53,9.06 -2.81,2.29 -5.62,4.05 -8.37,5.32 -2.78,1.23 -5.59,2.04 -8.37,2.47 -2.81,0.43 -5.65,0.65 -8.56,0.65 -3.74,0 -7.26,-0.62 -10.51,-1.82 -3.28,-1.21 -6.12,-2.94 -8.56,-5.16 -2.44,-2.22 -4.36,-4.91 -5.75,-8.06 -1.39,-3.12 -2.07,-6.65 -2.07,-10.51 0,-3.86 0.83,-7.17 2.53,-9.89 1.67,-2.75 3.92,-5.13 6.73,-7.11 2.81,-2.01 5.97,-3.68 9.52,-5.04 3.52,-1.36 7.14,-2.57 10.85,-3.62 3.71,-1.05 7.36,-2.07 10.91,-3.03 3.55,-0.99 6.73,-2.04 9.55,-3.22 2.81,-1.17 5.07,-2.53 6.77,-4.08 1.67,-1.55 2.53,-3.46 2.53,-5.75 0,-2.66 -0.52,-5 -1.54,-7.08 -1.02,-2.04 -2.47,-3.77 -4.36,-5.19 -1.86,-1.42 -4.14,-2.5 -6.8,-3.22 -2.66,-0.74 -5.56,-1.08 -8.78,-1.08 -2.72,0 -5.28,0.34 -7.7,1.02 -2.41,0.71 -4.57,1.73 -6.52,3.06 -1.92,1.33 -3.52,2.94 -4.79,4.88 -1.27,1.92 -2.07,4.17 -2.44,6.71l-14.03 0c0.31,-4.48 1.52,-8.44 3.62,-11.87 2.1,-3.46 4.79,-6.33 8.07,-8.65 3.24,-2.32 6.95,-4.08 11.09,-5.28 4.11,-1.21 8.37,-1.82 12.7,-1.82 4.73,0 9.18,0.59 13.35,1.73 4.2,1.14 7.91,2.87 11.09,5.25 3.22,2.35 5.75,5.32 7.6,8.9 1.89,3.59 2.81,7.82 2.81,12.64l0 47.72c0,2.35 0.59,4.23 1.76,5.65 1.17,1.42 2.66,2.13 4.39,2.13 0.8,0 1.54,-0.13 2.29,-0.37l0 11.03zm-21.82 -51.95c-1.88,1.98 -4.32,3.61 -7.29,4.91 -3,1.3 -6.21,2.47 -9.61,3.49 -3.4,1.02 -6.83,2.04 -10.26,3 -3.46,0.96 -6.58,2.1 -9.4,3.43 -2.78,1.33 -5.07,2.94 -6.83,4.85 -1.73,1.92 -2.63,4.29 -2.63,7.2 0,2.6 0.46,4.79 1.36,6.62 0.89,1.79 2.1,3.31 3.52,4.48 1.45,1.17 3.12,2.04 5.01,2.57 1.85,0.56 3.77,0.83 5.69,0.83 5.56,0 11,-1.7 16.35,-5.07 5.35,-3.4 10.04,-8.59 14.09,-15.57l0 -20.74zm58.22 -66.48l0 25.56 16.29 0 0 11.4 -16.29 0 0 60.39c0,1.98 0.25,3.65 0.77,5 0.5,1.36 1.21,2.47 2.07,3.28 0.86,0.8 1.92,1.39 3.12,1.73 1.21,0.31 2.5,0.49 3.89,0.49 1.7,0 3.43,-0.19 5.25,-0.49 1.82,-0.34 3.37,-0.65 4.7,-0.96l0 10.94c-1.54,0.49 -3.58,0.99 -6.09,1.45 -2.5,0.5 -5.1,0.74 -7.76,0.74 -2.29,0 -4.61,-0.34 -6.92,-0.96 -2.32,-0.65 -4.42,-1.64 -6.24,-3.03 -1.85,-1.39 -3.34,-3.18 -4.48,-5.41 -1.14,-2.19 -1.73,-4.88 -1.73,-8.1l0 -65.09 -14.12 0 0 -11.4 14.12 0 0 -25.56 13.41 0zm46.17 73.89c0.06,4.23 0.8,8.37 2.23,12.45 1.42,4.08 3.37,7.7 5.81,10.85 2.44,3.18 5.32,5.75 8.62,7.7 3.34,1.97 6.92,2.96 10.79,2.96 13.04,0 21.7,-6.09 25.99,-18.2l12.2 0c-1.02,4.7 -2.75,8.9 -5.16,12.61 -2.41,3.74 -5.32,6.86 -8.78,9.43 -3.43,2.57 -7.23,4.51 -11.4,5.84 -4.17,1.33 -8.44,2.01 -12.86,2.01 -6.33,0 -12.05,-1.36 -17.15,-4.08 -5.1,-2.72 -9.46,-6.34 -13.07,-10.88 -3.65,-4.51 -6.43,-9.77 -8.35,-15.7 -1.95,-5.93 -2.9,-12.18 -2.9,-18.69 0,-6.09 0.96,-11.96 2.9,-17.56 1.92,-5.62 4.7,-10.57 8.28,-14.86 3.59,-4.3 7.94,-7.69 13.04,-10.23 5.1,-2.54 10.82,-3.8 17.15,-3.8 6.15,0 11.71,1.14 16.63,3.43 4.91,2.32 9.12,5.47 12.61,9.52 3.52,4.05 6.21,8.78 8.07,14.21 1.89,5.44 2.81,11.31 2.81,17.65l0 5.35 -67.47 0zm53.62 -10.32c-0.13,-3.87 -0.83,-7.48 -2.13,-10.88 -1.3,-3.37 -3.12,-6.34 -5.44,-8.87 -2.32,-2.53 -5.13,-4.51 -8.47,-5.96 -3.31,-1.45 -7.02,-2.16 -11.13,-2.16 -3.74,0 -7.23,0.77 -10.41,2.35 -3.22,1.58 -5.97,3.65 -8.35,6.24 -2.35,2.6 -4.2,5.56 -5.56,8.93 -1.36,3.34 -2.07,6.8 -2.14,10.36l53.62 0zm49.04 36.59l0 17.55 -17.12 0 0 -17.55 17.12 0zm73.8 -47.81c0,9.64 1.27,18.02 3.77,25.12 2.51,7.08 5.78,12.98 9.86,17.65 4.08,4.67 8.69,8.16 13.84,10.41 5.16,2.26 10.42,3.4 15.73,3.4 5.47,0 10.45,-0.99 14.86,-3 4.45,-1.98 8.32,-4.6 11.59,-7.88 3.31,-3.24 6.03,-6.98 8.16,-11.18 2.13,-4.17 3.68,-8.47 4.57,-12.89l13.66 0c-1.27,6.52 -3.34,12.64 -6.24,18.33 -2.87,5.72 -6.55,10.66 -11,14.9 -4.42,4.23 -9.61,7.57 -15.57,10.01 -5.93,2.44 -12.61,3.68 -20.03,3.68 -8.65,0 -16.44,-1.58 -23.42,-4.67 -6.96,-3.12 -12.92,-7.61 -17.83,-13.5 -4.91,-5.87 -8.72,-13.08 -11.37,-21.6 -2.66,-8.5 -3.99,-18.14 -3.99,-28.87 0,-8.34 1.3,-16.35 3.83,-24.04 2.53,-7.7 6.18,-14.52 10.97,-20.46 4.82,-5.93 10.69,-10.69 17.67,-14.22 6.96,-3.52 14.93,-5.29 23.86,-5.29 7.48,0 14.19,0.99 20.09,2.97 5.93,2.01 11.06,4.76 15.45,8.28 4.36,3.55 8.04,7.72 11,12.61 2.94,4.85 5.25,10.17 6.86,15.98l-14.22 0c-3.31,-9.49 -8.16,-16.54 -14.53,-21.14 -6.36,-4.64 -14.58,-6.96 -24.66,-6.96 -6.27,0 -12.05,1.39 -17.3,4.17 -5.25,2.78 -9.77,6.55 -13.57,11.31 -3.8,4.79 -6.77,10.32 -8.87,16.66 -2.13,6.37 -3.18,13.07 -3.18,20.21zm114.53 19.56c0,-6.52 0.9,-12.7 2.69,-18.54 1.76,-5.81 4.39,-10.91 7.88,-15.3 3.46,-4.36 7.76,-7.85 12.86,-10.45 5.1,-2.6 10.94,-3.89 17.49,-3.89 6.64,0 12.55,1.3 17.68,3.89 5.13,2.6 9.46,6.09 12.98,10.45 3.52,4.39 6.21,9.49 8.06,15.3 1.82,5.84 2.75,12.02 2.75,18.54 0,6.46 -0.93,12.55 -2.75,18.33 -1.85,5.75 -4.54,10.82 -8.06,15.18 -3.52,4.33 -7.85,7.79 -12.98,10.32 -5.13,2.53 -11.03,3.8 -17.68,3.8 -6.55,0 -12.39,-1.27 -17.49,-3.8 -5.1,-2.53 -9.39,-5.99 -12.86,-10.32 -3.49,-4.36 -6.12,-9.43 -7.88,-15.18 -1.79,-5.78 -2.69,-11.87 -2.69,-18.33zm13.41 0c0,4.82 0.62,9.4 1.88,13.69 1.27,4.33 3.09,8.13 5.44,11.44 2.35,3.28 5.25,5.87 8.65,7.82 3.4,1.92 7.26,2.9 11.53,2.9 4.3,0 8.19,-0.99 11.65,-2.9 3.46,-1.95 6.43,-4.54 8.87,-7.82 2.44,-3.31 4.33,-7.11 5.63,-11.44 1.3,-4.3 1.95,-8.87 1.95,-13.69 0,-4.85 -0.65,-9.46 -1.95,-13.82 -1.3,-4.39 -3.18,-8.22 -5.63,-11.56 -2.44,-3.31 -5.41,-5.96 -8.87,-7.91 -3.46,-1.98 -7.36,-2.94 -11.65,-2.94 -4.26,0 -8.13,0.96 -11.53,2.94 -3.4,1.95 -6.3,4.6 -8.65,7.91 -2.35,3.34 -4.17,7.17 -5.44,11.56 -1.27,4.36 -1.88,8.97 -1.88,13.82zm89.9 -46.35l13.41 0 0 13.56c4.7,-5.44 9.76,-9.36 15.21,-11.77 5.44,-2.41 11.03,-3.62 16.75,-3.62 4.3,0 8.13,0.62 11.5,1.92 3.4,1.27 6.24,3.06 8.62,5.41 2.35,2.35 4.14,5.22 5.38,8.56 1.23,3.37 1.85,7.11 1.85,11.28l0 66.81 -13.41 0 0 -65.09c0,-3.15 -0.37,-5.78 -1.11,-7.94 -0.78,-2.13 -1.86,-3.86 -3.28,-5.19 -1.42,-1.33 -3.15,-2.29 -5.19,-2.9 -2.07,-0.62 -4.36,-0.9 -6.89,-0.9 -4.11,0 -7.94,0.71 -11.5,2.16 -3.55,1.45 -6.68,3.37 -9.33,5.75 -2.66,2.38 -4.73,5.13 -6.27,8.25 -1.54,3.09 -2.32,6.3 -2.32,9.64l0 56.21 -13.41 0 0 -92.15zm130.01 76.3l26.55 -76.3 14.12 0 -33.34 92.15 -14.56 0 -33.59 -92.15 14.4 0 26.42 76.3zm64.99 -27.97c0.06,4.23 0.8,8.37 2.23,12.45 1.42,4.08 3.37,7.7 5.81,10.85 2.44,3.18 5.32,5.75 8.62,7.7 3.34,1.97 6.92,2.96 10.79,2.96 13.04,0 21.7,-6.09 25.99,-18.2l12.2 0c-1.02,4.7 -2.75,8.9 -5.16,12.61 -2.41,3.74 -5.32,6.86 -8.78,9.43 -3.43,2.57 -7.23,4.51 -11.4,5.84 -4.17,1.33 -8.44,2.01 -12.86,2.01 -6.33,0 -12.05,-1.36 -17.15,-4.08 -5.1,-2.72 -9.46,-6.34 -13.07,-10.88 -3.65,-4.51 -6.43,-9.77 -8.35,-15.7 -1.95,-5.93 -2.9,-12.18 -2.9,-18.69 0,-6.09 0.96,-11.96 2.9,-17.56 1.92,-5.62 4.7,-10.57 8.28,-14.86 3.59,-4.3 7.94,-7.69 13.04,-10.23 5.1,-2.54 10.82,-3.8 17.15,-3.8 6.15,0 11.71,1.14 16.63,3.43 4.91,2.32 9.11,5.47 12.61,9.52 3.52,4.05 6.21,8.78 8.07,14.21 1.89,5.44 2.81,11.31 2.81,17.65l0 5.35 -67.47 0zm53.62 -10.32c-0.13,-3.87 -0.84,-7.48 -2.13,-10.88 -1.3,-3.37 -3.12,-6.34 -5.44,-8.87 -2.32,-2.53 -5.13,-4.51 -8.46,-5.96 -3.31,-1.45 -7.02,-2.16 -11.13,-2.16 -3.74,0 -7.23,0.77 -10.41,2.35 -3.22,1.58 -5.97,3.65 -8.35,6.24 -2.35,2.6 -4.2,5.56 -5.56,8.93 -1.36,3.34 -2.07,6.8 -2.14,10.36l53.62 0zm34.55 -38.01l13.41 0 -0.56 15.3c2.85,-5.01 6.18,-8.84 10.01,-11.5 3.83,-2.66 8.31,-3.98 13.44,-3.98 0.43,0 1.02,0.03 1.76,0.09 0.77,0.06 1.54,0.13 2.38,0.22 0.8,0.09 1.58,0.22 2.35,0.37 0.74,0.15 1.33,0.31 1.76,0.5l0 13.66c-1.39,-0.46 -2.97,-0.87 -4.7,-1.11 -1.76,-0.28 -3.06,-0.43 -3.89,-0.43 -3.59,0 -6.74,0.68 -9.52,2.01 -2.78,1.33 -5.13,3.12 -7.08,5.38 -1.92,2.25 -3.4,4.85 -4.42,7.79 -1.02,2.94 -1.54,6 -1.54,9.18l0 54.7 -13.41 0 0 -92.15zm77.78 -25.56l0 25.56 16.29 0 0 11.4 -16.29 0 0 60.39c0,1.98 0.25,3.65 0.77,5 0.5,1.36 1.21,2.47 2.07,3.28 0.86,0.8 1.92,1.39 3.12,1.73 1.21,0.31 2.5,0.49 3.89,0.49 1.7,0 3.43,-0.19 5.25,-0.49 1.82,-0.34 3.37,-0.65 4.7,-0.96l0 10.94c-1.54,0.49 -3.58,0.99 -6.09,1.45 -2.5,0.5 -5.1,0.74 -7.76,0.74 -2.29,0 -4.61,-0.34 -6.92,-0.96 -2.32,-0.65 -4.42,-1.64 -6.24,-3.03 -1.85,-1.39 -3.34,-3.18 -4.48,-5.41 -1.14,-2.19 -1.73,-4.88 -1.73,-8.1l0 -65.09 -14.12 0 0 -11.4 14.12 0 0 -25.56 13.41 0zm52.79 100.16l0 17.55 -17.12 0 0 -17.55 17.12 0zm73.8 -45.83c0,8.68 1.17,16.41 3.49,23.18 2.32,6.77 5.47,12.49 9.45,17.12 3.99,4.63 8.59,8.19 13.85,10.63 5.25,2.44 10.82,3.68 16.66,3.68 3.46,0 6.86,-0.59 10.2,-1.76 3.34,-1.17 6.55,-2.81 9.58,-4.85 3.06,-2.04 5.87,-4.51 8.46,-7.39 2.6,-2.87 4.89,-5.96 6.8,-9.33 1.95,-3.34 3.46,-6.89 4.57,-10.63 1.11,-3.74 1.73,-7.54 1.86,-11.4l-39.19 0 0 -11.87 51.95 0 0 66.01 -8.22 0 -3.99 -22.47c-2.13,3.27 -4.73,6.43 -7.85,9.49 -3.09,3.03 -6.49,5.78 -10.17,8.19 -3.68,2.41 -7.54,4.33 -11.59,5.78 -4.05,1.45 -8.07,2.19 -12.05,2.19 -8.81,0 -16.75,-1.73 -23.8,-5.13 -7.08,-3.4 -13.07,-8.1 -18.02,-14.03 -4.97,-5.93 -8.78,-12.98 -11.43,-21.11 -2.66,-8.09 -3.99,-16.87 -3.99,-26.3 0,-5.5 0.59,-10.94 1.7,-16.35 1.11,-5.38 2.78,-10.54 4.98,-15.42 2.19,-4.88 4.91,-9.43 8.13,-13.63 3.24,-4.2 6.95,-7.82 11.09,-10.88 4.17,-3.03 8.81,-5.44 13.91,-7.17 5.1,-1.76 10.6,-2.63 16.53,-2.63 7.48,0 14.16,0.96 20.06,2.87 5.87,1.95 11.03,4.67 15.42,8.16 4.42,3.49 8.07,7.66 11,12.48 2.94,4.85 5.22,10.14 6.83,15.95l-14.21 0c-3.31,-9.43 -8.16,-16.38 -14.53,-20.93 -6.37,-4.51 -14.56,-6.8 -24.57,-6.8 -6.27,0 -12.05,1.45 -17.3,4.36 -5.25,2.9 -9.76,6.83 -13.57,11.77 -3.8,4.95 -6.77,10.72 -8.87,17.28 -2.13,6.58 -3.18,13.56 -3.18,20.92zm129.18 -28.77l13.41 0 -0.56 15.3c2.85,-5.01 6.18,-8.84 10.01,-11.5 3.83,-2.66 8.31,-3.98 13.44,-3.98 0.43,0 1.02,0.03 1.76,0.09 0.77,0.06 1.54,0.13 2.38,0.22 0.8,0.09 1.58,0.22 2.35,0.37 0.74,0.15 1.33,0.31 1.76,0.5l0 13.66c-1.39,-0.46 -2.97,-0.87 -4.7,-1.11 -1.76,-0.28 -3.06,-0.43 -3.89,-0.43 -3.59,0 -6.74,0.68 -9.52,2.01 -2.78,1.33 -5.13,3.12 -7.08,5.38 -1.92,2.25 -3.4,4.85 -4.42,7.79 -1.02,2.94 -1.54,6 -1.54,9.18l0 54.7 -13.41 0 0 -92.15zm53.96 46.35c0,-6.52 0.9,-12.7 2.69,-18.54 1.76,-5.81 4.39,-10.91 7.88,-15.3 3.46,-4.36 7.76,-7.85 12.86,-10.45 5.1,-2.6 10.94,-3.89 17.49,-3.89 6.64,0 12.55,1.3 17.68,3.89 5.13,2.6 9.46,6.09 12.98,10.45 3.52,4.39 6.21,9.49 8.06,15.3 1.82,5.84 2.75,12.02 2.75,18.54 0,6.46 -0.93,12.55 -2.75,18.33 -1.85,5.75 -4.54,10.82 -8.06,15.18 -3.52,4.33 -7.85,7.79 -12.98,10.32 -5.13,2.53 -11.03,3.8 -17.68,3.8 -6.55,0 -12.39,-1.27 -17.49,-3.8 -5.1,-2.53 -9.39,-5.99 -12.86,-10.32 -3.49,-4.36 -6.12,-9.43 -7.88,-15.18 -1.79,-5.78 -2.69,-11.87 -2.69,-18.33zm13.41 0c0,4.82 0.62,9.4 1.88,13.69 1.27,4.33 3.09,8.13 5.44,11.44 2.35,3.28 5.25,5.87 8.65,7.82 3.4,1.92 7.26,2.9 11.53,2.9 4.3,0 8.19,-0.99 11.65,-2.9 3.46,-1.95 6.43,-4.54 8.87,-7.82 2.44,-3.31 4.33,-7.11 5.63,-11.44 1.3,-4.3 1.95,-8.87 1.95,-13.69 0,-4.85 -0.65,-9.46 -1.95,-13.82 -1.3,-4.39 -3.18,-8.22 -5.63,-11.56 -2.44,-3.31 -5.41,-5.96 -8.87,-7.91 -3.46,-1.98 -7.36,-2.94 -11.65,-2.94 -4.26,0 -8.13,0.96 -11.53,2.94 -3.4,1.95 -6.3,4.6 -8.65,7.91 -2.35,3.34 -4.17,7.17 -5.44,11.56 -1.27,4.36 -1.88,8.97 -1.88,13.82zm140.15 -29.7l-20.98 75.5 -14.03 0 -25.99 -92.15 13.66 0 19.47 75.59 20.37 -75.59 15.05 0 19.81 75.59 20.21 -75.59 13.57 0 -25.99 92.15 -14.12 0 -21.02 -75.5zm91.82 57.94l0 17.55 -17.12 0 0 -17.55 17.12 0z"/>
   <path class="fil1" d="M1533.74 1523.38c18.52,0 35.81,3.49 51.88,10.48 16.07,6.99 30.13,16.51 42.19,28.56 12.05,12.05 21.57,26.12 28.56,42.19 6.99,16.07 10.48,33.37 10.48,51.88l0 153.75c-12.58,0 -24.02,-1.4 -34.33,-4.19 -52.23,-14.16 -29.09,-104.92 -29.09,-149.56 0,-6.29 -0.44,-12.32 -1.31,-18.08 -0.87,-5.76 -2.18,-11.44 -3.93,-17.03 -5.59,-16.07 -14.06,-29.17 -25.42,-39.3 -11.35,-10.13 -24.37,-15.2 -39.04,-15.2 -9.43,0 -18.43,2.36 -26.99,7.07 -8.56,4.72 -15.98,11.09 -22.27,19.13 -6.29,8.04 -11.27,17.47 -14.94,28.3 -3.67,10.83 -5.5,22.53 -5.5,35.11 0,12.23 1.83,23.76 5.5,34.59 22.9,67.62 116.43,59.26 131.73,-1.28l4.4 87.58c-58.95,18.52 -120.93,18.25 -165.99,-26.82 -12.05,-12.05 -21.57,-26.12 -28.56,-42.19 -6.99,-16.07 -10.48,-33.37 -10.48,-51.88 0,-18.52 3.49,-35.81 10.48,-51.88 6.99,-16.07 16.51,-30.13 28.56,-42.19 12.05,-12.05 26.12,-21.57 42.19,-28.56 16.07,-6.99 33.37,-10.48 51.88,-10.48z"/>
   <path class="fil2" d="M855.11 1522.85c15.02,0 29.35,2.71 42.97,8.12 13.63,5.42 25.42,12.66 35.37,21.75 9.96,9.08 17.82,19.56 23.58,31.44 5.76,11.88 8.3,24.28 7.6,37.21 -0.7,15.37 -5.76,28.39 -15.2,39.04 -9.43,10.66 -21.57,18.87 -36.42,24.63 -14.85,5.76 -31.79,9.26 -50.83,10.48 -19.04,1.22 -51.36,0.96 -71.27,-2.88 -6.84,-17.59 8.94,-42.74 11.88,-45.06 29.64,5.93 61.57,11.87 88.47,-7.35 7.34,-5.24 11.88,-10.74 13.63,-16.51 1.75,-5.76 2.62,-9.7 2.62,-11.79 0,-1.75 -0.44,-4.98 -1.31,-9.7 -0.87,-4.72 -3.14,-9.52 -6.81,-14.41 -3.67,-4.89 -9.08,-9.17 -16.25,-12.84 -7.16,-3.67 -17.21,-5.5 -30.13,-5.5 -10.13,0 -19.3,2.18 -27.51,6.55 -8.21,4.37 -15.29,10.48 -21.22,18.34 -5.94,7.86 -10.57,17.29 -13.89,28.3 -3.32,11.01 -4.98,22.97 -4.98,35.9 0,12.23 1.83,23.58 5.5,34.06 3.67,10.48 8.65,19.65 14.94,27.51 6.29,7.86 13.63,14.06 22.01,18.6 8.39,4.54 17.47,6.81 27.25,6.81 8.39,0.7 16.25,-0.09 23.58,-2.36 7.34,-2.27 13.8,-5.15 19.39,-8.65 6.29,-3.84 12.23,-8.39 17.82,-13.63l30.92 31.44c-11.88,11.53 -25.68,20.61 -41.4,27.25 -15.72,6.64 -32.49,9.96 -50.31,9.96 -18.52,0 -35.9,-3.49 -52.14,-10.48 -16.25,-6.99 -30.39,-16.51 -42.45,-28.56 -12.05,-12.05 -21.57,-26.12 -28.56,-42.19 -6.99,-16.07 -10.48,-33.37 -10.48,-51.88 0,-18.52 3.49,-35.9 10.48,-52.14 6.99,-16.25 16.51,-30.4 28.56,-42.45 12.05,-12.05 26.2,-21.57 42.45,-28.56 16.25,-6.99 33.63,-10.48 52.14,-10.48z"/>
   <path class="fil2" d="M417.06 1527.95c8.02,-0.44 15.82,-0.18 23.4,0.8 7.58,0.98 25.11,5.4 32.24,7.81l-25.77 38.02c-9.26,-2.99 -18.41,-3.88 -27.44,-2.68 -9.42,0.52 -18.18,3.37 -26.3,8.54 -8.11,5.17 -15.09,11.94 -20.92,20.31 -5.83,8.37 -10.28,18.06 -13.35,29.08 -3.06,11.02 -4.26,22.63 -3.58,34.84l5.59 100.99c-8.8,5.39 -18.27,9.76 -28.4,13.12 -10.14,3.36 -21.66,5.4 -34.57,6.11l-6.46 -116.69c-1,-18.14 1.53,-35.51 7.61,-52.12 6.08,-16.61 14.8,-31.26 26.17,-43.96 11.37,-12.7 24.88,-22.98 40.54,-30.85 15.66,-7.86 32.73,-12.31 51.22,-13.33z"/>
   <path class="fil2" d="M703.75 1509.17c0.24,-1.83 0.33,-3.7 0.25,-5.6l-0.52 -12.05c-0.11,-28.08 -1.81,-42.19 -3.01,-70.14 -0.76,-17.71 -15.87,-31.58 -33.58,-30.81 -17.71,0.76 -31.58,15.87 -30.81,33.58 1.15,26.87 1.76,41.04 2.92,67.9l0.61 14.28 6.36 148.18c0.52,12.22 -0.9,23.73 -4.29,34.54 -3.38,10.81 -8.04,20.37 -13.98,28.66 -5.94,8.3 -13,14.98 -21.17,20.06 -8.17,5.07 -16.97,7.81 -26.4,8.21 -9.43,0.4 -18.43,-1.57 -27.01,-5.92 -8.58,-4.35 -16.18,-10.41 -22.81,-18.17 -6.63,-7.76 -12.01,-17.06 -16.15,-27.89 -4.14,-10.84 -6.47,-22.37 -6.99,-34.58 -0.54,-12.57 0.79,-24.34 3.99,-35.32 3.2,-10.98 7.77,-20.62 13.71,-28.91 5.94,-8.3 12.99,-14.98 21.17,-20.06 29.19,-18.11 92.16,1.76 97.73,28.15l-2.78 -64.76c-17.45,-7.29 -50.51,-15.91 -70.41,-15.06 -18.5,0.79 -35.63,5.03 -51.38,12.7 -15.76,7.67 -29.4,17.79 -40.92,30.35 -11.52,12.56 -20.43,27.02 -26.72,43.37 -6.29,16.36 -9.04,33.78 -8.25,52.28 0.79,18.5 5.03,35.63 12.7,51.38 7.67,15.76 17.79,29.4 30.35,40.92 12.56,11.53 27.02,20.43 43.37,26.73 16.36,6.29 33.78,9.04 52.28,8.25 18.5,-0.79 35.71,-5.03 51.65,-12.71 15.93,-7.68 29.66,-17.8 41.18,-30.36 11.52,-12.56 20.43,-27.02 26.72,-43.37 6.29,-16.36 9.04,-33.78 8.25,-52.28l-5.87 -136.67c-0.07,-1.64 -0.13,-3.27 -0.18,-4.89z"/>
   <path class="fil2" d="M133.11 1522.85c18.17,0 35.37,3.49 51.62,10.48 16.25,6.99 30.4,16.51 42.45,28.56 12.05,12.05 21.57,26.2 28.56,42.45 6.99,16.25 10.48,33.45 10.48,51.62 0,18.52 -3.49,35.81 -10.48,51.88 -6.99,16.07 -16.51,30.13 -28.56,42.19 -12.05,12.05 -26.2,21.57 -42.45,28.56 -16.25,6.99 -33.45,10.48 -51.62,10.48 -18.52,0 -35.81,-3.49 -51.88,-10.48 -16.07,-6.99 -30.13,-16.51 -42.19,-28.56 -12.05,-12.05 -21.57,-26.12 -28.56,-42.19 -6.99,-16.07 -10.48,-33.37 -10.48,-51.88 0,-18.17 3.49,-35.37 10.48,-51.62 6.99,-16.25 16.51,-30.4 28.56,-42.45 12.05,-12.05 26.12,-21.57 42.19,-28.56 16.07,-6.99 33.37,-10.48 51.88,-10.48zm0 222.73c9.43,0 18.43,-2.36 26.99,-7.08 8.56,-4.72 15.98,-11.09 22.27,-19.13 6.29,-8.04 11.27,-17.56 14.94,-28.56 3.67,-11.01 5.5,-22.62 5.5,-34.85 0,-12.23 -1.83,-23.76 -5.5,-34.59 -3.67,-10.83 -8.65,-20.35 -14.94,-28.56 -6.29,-8.21 -13.71,-14.67 -22.27,-19.39 -8.56,-4.72 -17.56,-7.07 -26.99,-7.07 -9.78,0 -18.87,2.36 -27.25,7.07 -8.39,4.72 -15.72,11.18 -22.01,19.39 -6.29,8.21 -11.27,17.73 -14.94,28.56 -3.67,10.83 -5.5,22.36 -5.5,34.59 0,12.23 1.83,23.84 5.5,34.85 3.67,11.01 8.65,20.53 14.94,28.56 6.29,8.04 13.63,14.41 22.01,19.13 8.38,4.72 17.47,7.08 27.25,7.08z"/>
   <path class="fil1" d="M1707.41 1764.73c-0.22,1.83 -0.29,3.7 -0.19,5.6l0.64 12.04c0.4,28.08 2.25,42.17 3.74,70.1 0.94,17.7 16.2,31.41 33.9,30.47 17.7,-0.94 31.41,-16.2 30.47,-33.9 -1.43,-26.86 -2.19,-41.02 -3.62,-67.87l-0.76 -14.28 -7.9 -148.11c-0.65,-12.21 0.66,-23.74 3.93,-34.58 3.27,-10.85 7.83,-20.45 13.68,-28.81 5.85,-8.36 12.84,-15.12 20.96,-20.27 8.12,-5.16 16.89,-7.98 26.31,-8.49 9.42,-0.5 18.44,1.38 27.07,5.64 8.62,4.26 16.29,10.24 23,17.93 6.71,7.69 12.19,16.93 16.43,27.73 4.25,10.79 6.7,22.3 7.35,34.51 0.67,12.56 -0.54,24.35 -3.62,35.36 -3.09,11.01 -7.56,20.7 -13.41,29.05 -5.85,8.36 -12.84,15.12 -20.96,20.27 -29,18.41 -92.18,-0.81 -98.01,-27.14l3.45 64.73c17.52,7.11 50.68,15.39 70.56,14.33 18.49,-0.99 35.57,-5.4 51.25,-13.23 15.68,-7.83 29.21,-18.09 40.61,-30.77 11.39,-12.68 20.15,-27.23 26.27,-43.65 6.12,-16.42 8.69,-33.88 7.7,-52.37 -0.99,-18.49 -5.4,-35.57 -13.23,-51.25 -7.83,-15.68 -18.09,-29.21 -30.77,-40.61 -12.68,-11.39 -27.23,-20.15 -43.65,-26.27 -16.42,-6.12 -33.88,-8.69 -52.37,-7.7 -18.49,0.99 -35.66,5.4 -51.51,13.24 -15.85,7.84 -29.47,18.1 -40.87,30.78 -11.39,12.68 -20.15,27.23 -26.27,43.65 -6.12,16.42 -8.69,33.88 -7.7,52.37l7.28 136.6c0.09,1.64 0.16,3.27 0.23,4.89z"/>
   <path class="fil1" d="M2288.35 1523.38c18.52,0 35.81,3.49 51.88,10.48 16.07,6.99 30.13,16.51 42.19,28.56 12.05,12.05 21.57,26.12 28.56,42.19 6.99,16.07 10.48,33.37 10.48,51.88l0 153.75c-12.58,0 -24.02,-1.4 -34.33,-4.19 -52.23,-14.16 -29.09,-104.92 -29.09,-149.56 0,-6.29 -0.44,-12.32 -1.31,-18.08 -0.87,-5.76 -2.18,-11.44 -3.93,-17.03 -5.59,-16.07 -14.06,-29.17 -25.42,-39.3 -11.36,-10.13 -24.37,-15.2 -39.04,-15.2 -9.43,0 -18.43,2.36 -26.99,7.07 -8.56,4.72 -15.98,11.09 -22.27,19.13 -6.29,8.04 -11.27,17.47 -14.94,28.3 -3.67,10.83 -5.5,22.53 -5.5,35.11 0,12.23 1.83,23.76 5.5,34.59 22.9,67.62 116.43,59.26 131.73,-1.28l4.4 87.58c-58.95,18.52 -120.93,18.25 -165.99,-26.82 -12.05,-12.05 -21.57,-26.12 -28.56,-42.19 -6.99,-16.07 -10.48,-33.37 -10.48,-51.88 0,-18.52 3.49,-35.81 10.48,-51.88 6.99,-16.07 16.51,-30.13 28.56,-42.19 12.05,-12.05 26.12,-21.57 42.19,-28.56 16.07,-6.99 33.37,-10.48 51.88,-10.48z"/>
   <path class="fil1" d="M2459.95 1764.73c-0.22,1.83 -0.29,3.7 -0.19,5.6l0.64 12.04c0.4,28.08 2.25,42.17 3.74,70.1 0.94,17.7 16.2,31.41 33.9,30.47 17.7,-0.94 31.41,-16.2 30.47,-33.9 -1.43,-26.86 -2.19,-41.02 -3.62,-67.87l-0.76 -14.28 -7.9 -148.11c-0.65,-12.21 0.66,-23.74 3.93,-34.58 3.27,-10.85 7.83,-20.45 13.68,-28.81 5.85,-8.36 12.84,-15.12 20.96,-20.27 8.12,-5.16 16.89,-7.98 26.31,-8.49 9.42,-0.5 18.44,1.38 27.07,5.64 8.62,4.26 16.29,10.24 23,17.93 6.71,7.69 12.19,16.93 16.44,27.73 4.25,10.79 6.7,22.3 7.35,34.51 0.67,12.56 -0.54,24.35 -3.63,35.36 -3.09,11.01 -7.56,20.7 -13.41,29.05 -5.85,8.36 -12.84,15.12 -20.96,20.27 -29,18.41 -92.18,-0.81 -98.01,-27.14l3.45 64.73c17.52,7.11 50.68,15.39 70.56,14.33 18.49,-0.99 35.57,-5.4 51.25,-13.23 15.68,-7.83 29.21,-18.09 40.61,-30.77 11.39,-12.68 20.15,-27.23 26.27,-43.65 6.12,-16.42 8.69,-33.88 7.7,-52.37 -0.99,-18.49 -5.4,-35.57 -13.23,-51.25 -7.83,-15.68 -18.09,-29.21 -30.77,-40.61 -12.68,-11.39 -27.23,-20.15 -43.65,-26.27 -16.42,-6.12 -33.88,-8.69 -52.37,-7.7 -18.49,0.99 -35.66,5.4 -51.51,13.24 -15.85,7.84 -29.47,18.1 -40.87,30.78 -11.39,12.68 -20.15,27.23 -26.27,43.65 -6.12,16.42 -8.69,33.88 -7.7,52.37l7.28 136.6c0.09,1.64 0.16,3.27 0.23,4.89z"/>
   <path class="fil1" d="M2061.26 1648.1c0,12.23 1.83,23.76 5.5,34.59 15.72,46.41 52.27,54.48 98.48,54.48l46.28 49.75c-167.25,26.47 -214.71,-44.5 -214.19,-138.82l0 -231.38 63.94 0 0 119.23 69.7 0 0 48.21 -69.7 0 0 63.94z"/>
   <path class="fil2" d="M1102.06 1527.95c8.02,-0.44 15.82,-0.18 23.4,0.8 7.58,0.98 14.93,2.67 22.06,5.08l-15.59 40.75c-9.26,-2.99 -18.41,-3.88 -27.44,-2.68 -9.42,0.52 -18.18,3.37 -26.3,8.54 -8.11,5.17 -15.08,11.94 -20.92,20.31 -5.83,8.37 -10.28,18.06 -13.35,29.08 -3.06,11.02 -4.26,22.63 -3.58,34.84l5.59 100.99c-8.8,5.39 -18.27,9.76 -28.4,13.12 -10.14,3.36 -21.66,5.4 -34.57,6.11l-6.46 -116.69c-1,-18.14 1.53,-35.51 7.61,-52.12 6.08,-16.61 14.8,-31.26 26.17,-43.96 11.37,-12.7 24.88,-22.98 40.54,-30.85 15.66,-7.86 32.74,-12.31 51.22,-13.33z"/>
   <path class="fil3" d="M1368.35 -0c356.6,0 652.28,242.58 706.94,560.07l-188.43 0c-52.32,-207.76 -253.16,-361.52 -496.55,-361.52 -287.59,0 -525.64,214.66 -531.71,479.47 -3.42,149.17 67.52,282.43 181.54,370.37l9.24 232.26 215.59 -132.67c33.34,6.22 67.9,9.5 103.38,9.5 192.11,0 362.1,-95.81 455.61,-238.35l206.99 0c-107.03,242.56 -363.35,413.4 -662.6,413.4 -43.25,0 -85.6,-3.57 -126.74,-10.4l-218.56 111.27c-37.4,19.04 -135.89,61.14 -126.18,-24.53l-1.82 -242.7c-148.82,-122.09 -242.72,-300.78 -242.72,-499.9 0,-367.97 320.58,-666.26 716.03,-666.26z"/>
   <path class="fil4" style="mask:url(#id0)" d="M1332.52 -0c349.18,0 636.85,244.84 675.69,560.07l-121.35 0c-52.32,-207.76 -253.16,-361.52 -496.55,-361.52 -287.59,0 -525.64,214.66 -531.71,479.47 -3.42,149.17 67.52,282.43 181.54,370.37l9.24 232.26 215.59 -132.67c33.34,6.22 67.9,9.5 103.38,9.5 192.11,0 362.1,-95.81 455.61,-238.35l115.37 0c-112.3,205.73 -341.85,346.72 -606.82,346.72 -41.08,0 -81.32,-3.39 -120.4,-9.88l-207.63 105.7c-35.53,18.09 -129.09,58.08 -119.86,-23.31l-1.73 -230.55c-141.37,-115.98 -230.58,-285.73 -230.58,-474.88 0,-349.55 304.54,-632.92 680.2,-632.92z"/>
   <path class="fil5" d="M1912.56 776.05c-3.21,0.74 -3.41,-0.48 -10.53,2.11 -25.46,9.26 -36.27,33.01 -28.38,54.54 0.53,1.45 1.24,2.72 2.09,4.51 4.17,8.8 12.06,15.3 20.79,19.73 11.54,5.85 23.9,4.28 37.7,4.28 46.43,0 92.87,0 139.3,0 36.85,0 74.79,0.82 111.49,0.04 4.99,-0.11 13.47,-3.01 17.9,-5.42l6.53 -4.05c1.42,-1.04 2.29,-1.99 3.57,-3.16 7.03,-6.41 12.67,-16.75 12.98,-27.11 0.28,-9.34 -1.08,-15.98 -5.59,-23.84l-4.37 -6.05c-3.7,-4.33 -10.18,-9.24 -15.59,-11.58 -1.51,-0.65 -3.37,-1.31 -4.95,-1.89 -2.54,-0.94 -2.57,-0.9 -5.69,-1.41 -7.31,-1.19 -2.13,-1.47 -12.59,-1.42l-250.73 0c-6.8,0 -8.4,-0.56 -13.93,0.71z"/>
   <path class="fil5" d="M1866.9 643.65c-0.78,0.18 -3.39,0.33 -3.66,0.37 -4.82,0.79 -6.94,1.9 -11.07,3.58 -0.05,0.02 -1.31,0.51 -1.65,0.66 -0.82,0.37 -1.01,0.47 -1.57,0.77 -1.52,0.82 -1.42,0.83 -2.81,1.72 -2,1.29 -3.83,2.42 -5.75,4.06 -3.36,2.85 -6.23,6.61 -8.32,10.36 -6.85,12.32 -7.53,24.95 -2,38.22 2.28,5.48 7.89,11.91 12.7,15.68 15.24,11.92 30.61,9.76 49.67,9.76 15.49,0 111.91,0.68 118.44,-0.16 2.03,-0.26 4.99,-0.9 7.69,-1.59 6.67,-1.71 13.85,-6.06 18.75,-10.13 1.42,-1.18 2.85,-3.11 4.25,-4.71 1.73,-1.98 2.49,-3.37 3.85,-5.87 10.26,-18.85 6.06,-40.66 -10.88,-53.27 -15.13,-11.26 -28.24,-10.14 -49.23,-10.14 -7.93,0 -112.74,-0.51 -116.9,0.3 -0.27,0.05 -0.53,0.15 -0.75,0.2 -0.22,0.05 -0.5,0.16 -0.75,0.22z"/>
   <path class="fil6" d="M1517.05 696.03c-6.54,1.67 -3.42,0.13 -10.57,3.63 -19.04,9.31 -27.85,34.52 -22.59,49.85 0.49,1.42 0.6,1.62 1.24,3.81l0.46 1.68c0.29,0.93 0.73,2.11 0.83,2.37 7.88,21.08 32.23,30.52 52.28,26.44 22.59,-4.61 39.6,-30.17 33.1,-53.61 -0.97,-3.5 -0.97,-5.21 -2.14,-8.38 -1.21,-3.28 -2.28,-5.22 -4.03,-7.7 -10.94,-15.54 -29.32,-22.35 -46.55,-18.69 -0.37,0.08 -0.72,0.21 -1.01,0.29 -0.3,0.07 -0.67,0.23 -1.01,0.32z"/>
   <path class="fil6" d="M1201.08 696.03c-19.13,4.89 -27.84,14.83 -32.56,33.57 -0.88,3.5 -1.68,2.96 -1.84,8.98 -0.14,5.33 0.33,6.45 1.46,10.58 0.49,1.8 0.53,2.45 0.98,4.18 6.01,23.13 28.68,33.46 53.05,30.09 5.34,-0.74 4.28,-0.41 8.39,-2.5 3.03,-1.54 4.98,-2.34 7.5,-4.11 9.23,-6.47 15.38,-15.21 18.04,-26.4 1.31,-5.49 1.71,-15.21 0.54,-20.96 -5.1,-24.98 -30.77,-38.88 -53.54,-34.04 -0.36,0.08 -0.72,0.21 -1.01,0.29 -0.3,0.07 -0.67,0.23 -1.01,0.32z"/>
   <path class="fil6" d="M1359.07 696.03c-5.89,1.51 -8.24,1.65 -15.17,6.5 -14.36,10.05 -23.01,30.31 -17.86,46.79l2.49 8.03c5.62,13.15 16.44,23.47 30.39,25.83 19.61,3.32 37.04,-0.71 48.18,-17.52 8.86,-13.37 11.08,-28.99 4.65,-43.99 -5.59,-13.02 -16.66,-23 -30.36,-25.79l-21.31 -0.18c-0.3,0.07 -0.67,0.23 -1.01,0.32z"/>
   <rect class="fil5" x="2238.56" y="775.34" width="146.93" height="85.51" rx="73.46" ry="41.47"/>
   <rect class="fil5" x="2066.2" y="643.16" width="113.96" height="85.51" rx="56.98" ry="41.47"/>
   <path class="fil1" d="M1304.72 1648.1c0,12.23 1.83,23.76 5.5,34.59 15.72,46.41 52.27,54.48 98.48,54.48l46.28 49.75c-167.25,26.47 -214.71,-44.5 -214.19,-138.82l0 -228.73 0.82 -0.42c20.74,3.45 41.79,6.06 63.11,7.81l0 109.19 69.7 0 0 48.21 -69.7 0 0 63.93z"/>
  </g>
 </g>
</svg>
